<svg width="271" height="375" viewBox="0 0 271 375" fill="none" xmlns="http://www.w3.org/2000/svg">
<path d="M224.869 63.7937L173.838 146.238L160.703 125.008L205.891 51.9987C210.212 45.0153 216.34 42.9112 222.535 46.7574C228.346 50.3697 229.189 56.8027 224.869 63.7861M110.034 125.438L96.8981 146.66L45.7475 64.035C41.4266 57.0515 42.2697 50.6186 48.465 46.7649C54.2764 43.16 60.4039 45.2566 64.7248 52.24L110.034 125.446V125.438ZM96.8981 228.101L110.034 249.323L64.7248 322.529C60.4039 329.512 54.2764 331.616 48.465 328.004C42.2697 324.15 41.4266 317.717 45.7475 310.734L96.8906 228.094L96.8981 228.101ZM135.237 208.606L122.101 187.384L135.237 166.163L148.372 187.384L135.237 208.606ZM160.703 249.76L173.838 228.539L224.869 310.983C229.189 317.966 228.346 324.399 222.535 328.011C216.34 331.858 210.212 329.761 205.891 322.778L160.703 249.768V249.76ZM259.978 89.367C279.429 57.9414 271.962 23.2202 246.789 7.57906C221.617 -8.05454 187.253 0.678558 167.801 32.1041L135.5 84.2916L103.199 32.1041C83.7472 0.678558 49.3834 -8.05454 24.2109 7.57906C-0.961689 23.2202 -8.42914 57.9339 11.0224 89.367L71.6954 187.392L11.0224 285.417C-8.42914 316.842 -0.961689 351.564 24.2109 367.205C49.3834 382.846 83.7472 374.105 103.199 342.68L135.5 290.492L167.801 342.68C187.253 374.105 221.617 382.846 246.789 367.205C271.962 351.564 279.429 316.85 259.978 285.424L199.305 187.399L259.978 89.3746V89.367Z" fill="black"/>
</svg>
