<svg width="204" height="18" viewBox="0 0 204 18" fill="none" xmlns="http://www.w3.org/2000/svg">
<g clip-path="url(#clip0_15_642)">
<path d="M173.628 12.4538C175.523 12.4538 177.06 10.8908 177.06 8.97479C177.06 7.05882 175.523 5.4958 173.628 5.4958C171.733 5.4958 170.196 7.05882 170.196 8.97479C170.196 10.8908 171.733 12.4538 173.628 12.4538ZM173.628 18C168.609 18 164.562 13.9664 164.562 8.97479C164.562 4.03361 168.66 0 173.628 0C178.647 0 182.693 4.03361 182.693 9.02521C182.745 13.9664 178.647 18 173.628 18Z" fill="#1EAAE2"/>
<path d="M152.373 12.4538C154.268 12.4538 155.804 10.8908 155.804 8.97479C155.804 7.05882 154.268 5.4958 152.373 5.4958C150.478 5.4958 148.941 7.05882 148.941 8.97479C148.941 10.8908 150.478 12.4538 152.373 12.4538ZM152.373 18C147.353 18 143.307 13.9664 143.307 8.97479C143.307 4.03361 147.404 0 152.373 0C157.392 0 161.438 4.03361 161.438 9.02521C161.489 13.9664 157.392 18 152.373 18Z" fill="#6EC8C2"/>
<path d="M194.883 12.4538C196.778 12.4538 198.315 10.8908 198.315 8.97479C198.315 7.05882 196.778 5.4958 194.883 5.4958C192.988 5.4958 191.452 7.05882 191.452 8.97479C191.452 10.8908 192.988 12.4538 194.883 12.4538ZM194.883 18C189.864 18 185.818 13.9664 185.818 8.97479C185.818 4.03361 189.915 0 194.883 0C199.903 0 203.949 4.03361 203.949 9.02521C204 13.9664 199.903 18 194.883 18Z" fill="#0373B7"/>
<path d="M14.3922 7.05883C14.3922 11.042 11.5752 13.3613 6.76073 13.3613H4.86568V17.1429H0V0.857147H6.9656C11.6264 0.857147 14.3922 3.12605 14.3922 7.05883ZM9.42405 7.05883C9.42405 5.7479 8.45092 4.94118 6.91439 4.94118H4.86568V9.27731H6.86317C8.50213 9.27731 9.42405 8.42017 9.42405 7.05883Z" fill="black"/>
<path d="M34.9304 8.9748C34.9304 13.7647 31.2427 17.4454 26.0185 17.4454C20.7943 17.4454 17.1066 13.7647 17.1066 8.9748C17.1066 4.18488 20.7431 0.504211 26.0185 0.504211C31.2427 0.504211 34.9304 4.18488 34.9304 8.9748ZM29.9623 8.9748C29.9623 6.85715 28.3233 4.99161 26.0185 4.99161C23.7137 4.99161 22.0748 6.85715 22.0748 8.9748C22.0748 11.0924 23.7137 12.958 26.0185 12.958C28.3233 12.958 29.9623 11.0924 29.9623 8.9748Z" fill="black"/>
<path d="M48.8616 17.1429L46.2495 12.8571H46.0447H43.4326V17.1429H38.5669V0.857147H46.0447C50.5006 0.857147 53.2664 3.02521 53.2664 6.75631C53.2664 8.72269 52.3957 10.3866 50.8591 11.4958L54.3932 17.1429H48.8616ZM43.1253 8.57143H45.6861C47.0178 8.57143 48.0422 7.81513 48.0422 6.70589C48.0422 5.64706 47.069 4.94118 45.6861 4.94118H43.1253V8.57143Z" fill="black"/>
<path d="M70.8852 5.04202H65.9683V17.1429H61.0514V5.04202H56.1346V0.857147H70.8852V5.04202Z" fill="black"/>
<path d="M80.3606 17.4958C77.646 17.4958 74.9315 16.5378 73.395 15.6303L73.2413 15.5294L75.5461 11.8487L75.6998 11.9496C77.2875 12.8067 79.0289 13.3614 80.3094 13.3614C81.3849 13.3614 82.0508 13.0084 82.0508 12.4034C82.0508 11.7479 80.924 11.4454 79.5411 11.0924C77.0314 10.4874 73.6511 9.63026 73.6511 5.69749C73.6511 2.67228 76.3144 0.504211 80.1045 0.504211C82.102 0.504211 84.0995 0.957993 86.3531 1.9664L86.5067 2.01682L84.7141 5.74791L84.5604 5.64707C83.1263 4.94119 81.7435 4.58824 80.3094 4.58824C79.3362 4.58824 78.6704 4.94119 78.6704 5.54623C78.6704 6.20169 79.746 6.45379 81.1288 6.75631C83.6385 7.36135 87.0701 8.16808 87.0701 12.1513C87.1725 15.4286 84.5092 17.4958 80.3606 17.4958Z" fill="black"/>
<path d="M96.0332 0.857147V17.1429H91.1675V0.857147H96.0332Z" fill="black"/>
<path d="M117.135 8.97479C117.135 13.916 113.447 17.1429 108.121 17.1429H101.155V0.857147H108.121C113.447 0.857147 117.135 4.03362 117.135 8.97479ZM112.013 8.97479C112.013 6.70589 110.323 5.14286 108.018 5.14286H105.969V12.9076H108.018C110.323 12.8571 112.013 11.2437 112.013 8.97479Z" fill="black"/>
<path d="M125.381 4.89076V7.05883H132.193V10.9412H125.381V13.0588H133.32V17.0924H120.464V0.857147H133.32V4.89076H125.381Z" fill="black"/>
</g>
<defs>
<clipPath id="clip0_15_642">
<rect width="204" height="18" fill="none"/>
</clipPath>
</defs>
</svg>
